# xmcd CD database file
#
# Track frame offsets:
#	150
#	16675
#	29672
#	57326
#	75020
#	89979
#	114377
#	140066
#	159275
#	185228
#	208013
#
# Disc length: 3078 seconds
#
# Revision: 1
# Processed by: cddbd v1.5.2PL0 Copyright (c) Steve Scherf et al.
# Submitted via: jetAudio 7
#
DISCID=920c040b
DTITLE=The Blue Suns - The Blue Suns
DYEAR=1900
DGENRE=Blues
TTITLE0=She's Got It All
TTITLE1=Leaving Town
TTITLE2=And When
TTITLE3=Midnight on the Lawn
TTITLE4=She's Cosmic
TTITLE5=The Wandering
TTITLE6=Said She
TTITLE7=Running South
TTITLE8=Jaded Love
TTITLE9=Bonus Track 1
TTITLE10=Bonus Track 2
EXTD=
EXTT0=
EXTT1=
EXTT2=
EXTT3=
EXTT4=
EXTT5=
EXTT6=
EXTT7=
EXTT8=
EXTT9=
EXTT10=
PLAYORDER=
